<svg width="72" height="72" viewBox="0 0 72 72" fill="none" xmlns="http://www.w3.org/2000/svg">
<g filter="url(#filter0_i_1995_21812)">
<path d="M8.30052 4.3833H50.2694C54.8394 4.3833 58.57 8.11387 58.57 12.6838V55.8652C58.57 60.4351 54.8394 64.1657 50.2694 64.1657H8.30052C3.73057 64.1657 0 60.4351 0 55.8652V12.5906C0 8.11387 3.73057 4.3833 8.30052 4.3833Z" fill="#D3E2F8"/>
</g>
<path d="M27.1399 43.4609L16.2432 32.5643C15.4622 31.7832 14.1959 31.7832 13.4148 32.5643L0 45.9791V49.0568V55.7718C0 60.3417 3.73057 64.0723 8.30052 64.0723H50.2694C54.8394 64.0723 58.57 60.3417 58.57 55.7718V49.0568V39.8236L46.0915 27.2615C45.3098 26.4745 44.0369 26.474 43.2546 27.2605L27.1399 43.4609Z" fill="#B1CAEF"/>
<path d="M26.7667 29.3782C29.6512 29.3782 31.9895 27.0399 31.9895 24.1554C31.9895 21.2709 29.6512 18.9326 26.7667 18.9326C23.8823 18.9326 21.5439 21.2709 21.5439 24.1554C21.5439 27.0399 23.8823 29.3782 26.7667 29.3782Z" fill="#B1CAEF"/>
<path d="M58.5699 67.6165C65.9872 67.6165 72 61.6036 72 54.1864C72 46.7692 65.9872 40.7563 58.5699 40.7563C51.1527 40.7563 45.1399 46.7692 45.1399 54.1864C45.1399 61.6036 51.1527 67.6165 58.5699 67.6165Z" fill="white"/>
<path d="M52.2281 56.1451C51.2022 56.1451 50.2695 55.3057 50.2695 54.1866C50.2695 53.0674 51.1089 52.228 52.2281 52.228H64.912C66.0312 52.228 66.8706 53.0674 66.8706 54.1866C66.8706 55.3057 66.0312 56.1451 64.912 56.1451H52.2281Z" fill="#748AAB"/>
<path d="M60.5287 60.5287C60.5287 61.6479 59.6893 62.4873 58.5701 62.4873C57.4509 62.4873 56.6116 61.6479 56.6116 60.5287V47.938C56.6116 46.9121 57.4509 45.9795 58.5701 45.9795C59.596 45.9795 60.5287 46.8189 60.5287 47.938V60.5287Z" fill="#748AAB"/>
<defs>
<filter id="filter0_i_1995_21812" x="0" y="4.3833" width="58.5701" height="63.7822" filterUnits="userSpaceOnUse" color-interpolation-filters="sRGB">
<feFlood flood-opacity="0" result="BackgroundImageFix"/>
<feBlend mode="normal" in="SourceGraphic" in2="BackgroundImageFix" result="shape"/>
<feColorMatrix in="SourceAlpha" type="matrix" values="0 0 0 0 0 0 0 0 0 0 0 0 0 0 0 0 0 0 127 0" result="hardAlpha"/>
<feOffset dy="4"/>
<feGaussianBlur stdDeviation="2.5"/>
<feComposite in2="hardAlpha" operator="arithmetic" k2="-1" k3="1"/>
<feColorMatrix type="matrix" values="0 0 0 0 1 0 0 0 0 1 0 0 0 0 1 0 0 0 0.2 0"/>
<feBlend mode="normal" in2="shape" result="effect1_innerShadow_1995_21812"/>
</filter>
</defs>
</svg>
