<!DOCTYPE svg PUBLIC "-//W3C//DTD SVG 1.1//EN" "http://www.w3.org/Graphics/SVG/1.1/DTD/svg11.dtd">
<!-- Uploaded to: SVG Repo, www.svgrepo.com, Transformed by: SVG Repo Mixer Tools -->
<svg width="800px" height="800px" viewBox="-4.32 -4.32 32.64 32.64" fill="none" xmlns="http://www.w3.org/2000/svg">
<g id="SVGRepo_bgCarrier" stroke-width="0">
<path transform="translate(-4.32, -4.32), scale(1.02)" d="M16,27.391647819429636C17.9284308422355,27.57668388950553,20.03604202397876,27.853311991866093,21.703320787194517,26.866769855794864C23.363706135561568,25.884306608245286,23.677077011416106,23.63708344572199,24.8861309241035,22.133653309642188C26.2068701852165,20.49134506662305,28.363329362733992,19.549729057671108,29.157546436950916,17.59761538271357C30.012661803805955,15.495819217036923,30.72606719726601,12.777799440869073,29.45817277533388,10.895988305946634C28.11525204382545,8.902822990162933,24.705625382058862,9.79623347539023,22.86224834190177,8.25412285841752C21.097906667248008,6.778130715096095,21.438571382188652,3.3844986885469357,19.34360474144972,2.4344623070027094C17.342318783721108,1.5269087294215677,14.86896016284753,2.6413507488125596,12.987018133248242,3.7758520392524453C11.263003902362065,4.815148860788201,10.709828043937227,7.0053596980575366,9.329937298159585,8.471055601466427C8.096661487045589,9.781019676270317,6.510915894821647,10.61179089452645,5.299197658542916,11.941720975179287C3.6061752210816866,13.799909949634845,0.7164171855509998,15.334362047596672,0.7872308636403691,17.84716459883917C0.8556915438434939,20.276471711754617,3.7116242009243825,21.657483003843783,5.615563199042846,23.167859183819857C7.169583043095299,24.400647922317518,9.006127179834982,25.077394014772274,10.843568692055783,25.824759011706966C12.532133648721933,26.511569631402587,14.185435041086794,27.217537365717174,16,27.391647819429636" fill="#7ed0ec" strokewidth="0"/>
</g>
<g id="SVGRepo_tracerCarrier" stroke-linecap="round" stroke-linejoin="round"/>
<g id="SVGRepo_iconCarrier"> <path d="M16.19 2H7.81C4.17 2 2 4.17 2 7.81V16.18C2 19.83 4.17 22 7.81 22H16.18C19.82 22 21.99 19.83 21.99 16.19V7.81C22 4.17 19.83 2 16.19 2ZM17 17.47C15.29 17.47 13.69 16.73 12.41 15.36C10.96 16.67 9.07 17.47 7 17.47C6.59 17.47 6.25 17.13 6.25 16.72C6.25 16.31 6.59 15.97 7 15.97C10.47 15.97 13.34 13.22 13.71 9.7H12H7.01C6.6 9.7 6.26 9.36 6.26 8.95C6.26 8.54 6.6 8.21 7.01 8.21H11.25V7.28C11.25 6.87 11.59 6.53 12 6.53C12.41 6.53 12.75 6.87 12.75 7.28V8.21H14.44C14.46 8.21 14.48 8.2 14.5 8.2C14.52 8.2 14.54 8.21 14.56 8.21H16.99C17.4 8.21 17.74 8.55 17.74 8.96C17.74 9.37 17.4 9.71 16.99 9.71H15.21C15.06 11.42 14.42 12.99 13.44 14.27C14.44 15.38 15.69 15.98 17 15.98C17.41 15.98 17.75 16.32 17.75 16.73C17.75 17.14 17.41 17.47 17 17.47Z" fill="#001733"/> </g>
</svg>