<!DOCTYPE svg PUBLIC "-//W3C//DTD SVG 1.1//EN" "http://www.w3.org/Graphics/SVG/1.1/DTD/svg11.dtd">
<!-- Uploaded to: SVG Repo, www.svgrepo.com, Transformed by: SVG Repo Mixer Tools -->
<svg width="800px" height="800px" viewBox="-2.4 -2.4 28.80 28.80" fill="none" xmlns="http://www.w3.org/2000/svg" stroke="#000000" stroke-width="0.00024000000000000003">
<g id="SVGRepo_bgCarrier" stroke-width="0">
<path transform="translate(-2.4, -2.4), scale(0.8999999999999999)" d="M16,30.19881556058923C18.886704691229724,30.37940292975247,22.061525200126606,30.77781089614998,24.432788150153083,29.12167449050559C26.787477020516942,27.477113746142887,27.073181749717214,24.21426185863326,28.29223731970778,21.613676686909557C29.526069819982133,18.981568205891683,32.43973672333747,16.545749026202166,31.637675864852106,13.751641642105199C30.81477725899419,10.884942629597944,26.502380599945045,10.846002053824416,24.553307656643163,8.588516725960353C22.598444817283976,6.324325335378555,23.09584233235554,2.223167398856627,20.461177369355315,0.8066251627650889C17.854501706181075,-0.5948684709732344,14.48930304446088,0.4761294931103963,11.8123835816255,1.7382882025788433C9.335728020775377,2.90602314189206,7.9123446896563765,5.372795559008253,6.216794940386551,7.522804559764694C4.602854973664867,9.569329857312873,2.3667037704796026,11.410598565487273,2.1371199449805154,14.006818755832356C1.910036780900377,16.5747605269509,4.0028734211272985,18.645467734055387,5.023890047233953,21.01262145793516C6.072367239490027,23.44344053236688,6.188946122230384,26.408311741692778,8.219064895675233,28.10737135248018C10.321212446225967,29.866713734697427,13.264124086902832,30.027663785000847,16,30.19881556058923" fill="#7ed0ec" strokewidth="0"/>
</g>
<g id="SVGRepo_tracerCarrier" stroke-linecap="round" stroke-linejoin="round"/>
<g id="SVGRepo_iconCarrier"> <path d="M12 14.7836C13.9487 14.7836 15.4872 13.3403 15.6923 11.4846C15.7949 10.2475 15.8974 9.21659 15.8974 8.39184C15.8974 7.5671 15.8974 6.53617 15.6923 5.29906C15.4872 3.44339 13.9487 2.00009 12 2.00009C11.0769 2.00009 10.1538 2.30937 9.53846 2.92793C8.92308 3.54648 8.41026 4.26813 8.30769 5.19597C8.20513 6.43308 8.10256 7.46401 8.10256 8.28875C8.10256 9.11349 8.10256 10.1444 8.30769 11.3815C8.51282 13.3403 10.0513 14.7836 12 14.7836Z" fill="#030D45"/> <path d="M19.1795 7.97952C18.7692 7.97952 18.359 8.2888 18.359 8.80427C18.359 9.62901 18.2564 10.6599 18.1538 11.897C17.8462 14.9898 15.1795 17.361 11.8974 17.361C8.61538 17.361 6.05128 14.9898 5.74359 11.897C5.64103 10.6599 5.53846 9.62901 5.53846 8.80427C5.53846 8.39189 5.23077 7.97952 4.71795 7.97952C4.20513 7.97952 4 8.39189 4 8.80427C4 9.7321 4.10256 10.763 4.20513 12.0001C4.51282 15.6084 7.48718 18.495 11.1795 18.8043V21.1754C11.1795 21.5878 11.4872 22.0001 12 22.0001C12.5128 22.0001 12.8205 21.6909 12.8205 21.1754V18.8043C16.5128 18.495 19.4872 15.6084 19.7949 12.0001C19.8974 10.763 20 9.62901 20 8.80427C20 8.39189 19.5897 7.97952 19.1795 7.97952Z" fill="#030D45"/> </g>
</svg>