<!DOCTYPE svg PUBLIC "-//W3C//DTD SVG 1.1//EN" "http://www.w3.org/Graphics/SVG/1.1/DTD/svg11.dtd">
<!-- Uploaded to: SVG Repo, www.svgrepo.com, Transformed by: SVG Repo Mixer Tools -->
<svg width="800px" height="800px" viewBox="-2.4 -2.4 28.80 28.80" fill="none" xmlns="http://www.w3.org/2000/svg" stroke="#ffffff">
<g id="SVGRepo_bgCarrier" stroke-width="0">
<path transform="translate(-2.4, -2.4), scale(0.8999999999999999)" d="M16,25.96446903775397C19.456463975448138,26.27220040969533,23.556906646864558,28.46441491015156,26.014061788104083,26.014061788104087C28.471192691528465,23.563732836775426,25.95913086995179,19.469944570202568,25.99212974878518,16C26.025769613824707,12.462653545728278,28.117432153208693,8.770511309987793,26.20635625025146,5.79364374974854C24.048397088839526,2.432208123885773,19.992420447997723,0.30643612748038607,16.000000000000004,0.43533987277432473C12.089163228788243,0.561609516367416,8.781272935438796,3.302886262385026,6.432097549914554,6.43209754991455C4.393438794232058,9.1476861896614,4.090316026309426,12.611790264099149,4.315229271783641,15.999999999999998C4.521940978212948,19.11401231515618,5.248625510676715,22.351672575307376,7.623282020259065,24.37671797974093C9.871275223890379,26.293748206151278,13.057239993976658,25.70247308455434,16,25.96446903775397" fill="#7ed0ec" strokewidth="0"/>
</g>
<g id="SVGRepo_tracerCarrier" stroke-linecap="round" stroke-linejoin="round"/>
<g id="SVGRepo_iconCarrier"> <path opacity="0.4" d="M7.11039 5.96003L16.1304 2.95003C20.1804 1.60003 22.3804 3.81003 21.0404 7.86003L18.0304 16.88C16.0104 22.95 12.6904 22.95 10.6704 16.88L9.78039 14.2L7.10039 13.31C1.04039 11.3 1.04039 7.99003 7.11039 5.96003Z" fill="#000000"/> <path d="M12.1191 11.6301L15.9291 7.81006L12.1191 11.6301Z" fill="#000000"/> <path d="M12.1205 12.38C11.9305 12.38 11.7405 12.31 11.5905 12.16C11.3005 11.87 11.3005 11.39 11.5905 11.1L15.3905 7.28C15.6805 6.99 16.1605 6.99 16.4505 7.28C16.7405 7.57 16.7405 8.05 16.4505 8.34L12.6505 12.16C12.5005 12.3 12.3105 12.38 12.1205 12.38Z" fill="#000000"/> </g>
</svg>